<?xml version="1.0" encoding="UTF-8" standalone="no"?>
<!-- Created with Inkscape (http://www.inkscape.org/) -->

<svg
   width="210mm"
   height="210mm"
   viewBox="0 0 210 210"
   version="1.1"
   id="svg5"
   inkscape:version="1.2.2 (b0a8486541, 2022-12-01)"
   sodipodi:docname="xpano_tmp.svg"
   xmlns:inkscape="http://www.inkscape.org/namespaces/inkscape"
   xmlns:sodipodi="http://sodipodi.sourceforge.net/DTD/sodipodi-0.dtd"
   xmlns:xlink="http://www.w3.org/1999/xlink"
   xmlns="http://www.w3.org/2000/svg"
   xmlns:svg="http://www.w3.org/2000/svg">
  <sodipodi:namedview
     id="namedview7"
     pagecolor="#ffffff"
     bordercolor="#000000"
     borderopacity="0.25"
     inkscape:showpageshadow="2"
     inkscape:pageopacity="0.0"
     inkscape:pagecheckerboard="true"
     inkscape:deskcolor="#d1d1d1"
     inkscape:document-units="mm"
     showgrid="true"
     inkscape:zoom="1.28"
     inkscape:cx="289.84375"
     inkscape:cy="389.45312"
     inkscape:window-width="2003"
     inkscape:window-height="1360"
     inkscape:window-x="0"
     inkscape:window-y="0"
     inkscape:window-maximized="0"
     inkscape:current-layer="layer1">
    <inkscape:grid
       type="xygrid"
       id="grid5544"
       units="mm"
       spacingx="4.1999999"
       spacingy="4.1999999" />
  </sodipodi:namedview>
  <defs
     id="defs2">
    <linearGradient
       inkscape:collect="always"
       id="linearGradient15003">
      <stop
         style="stop-color:#155799;stop-opacity:1;"
         offset="0"
         id="stop14999" />
      <stop
         style="stop-color:#159957;stop-opacity:1;"
         offset="1"
         id="stop15001" />
    </linearGradient>
    <linearGradient
       inkscape:collect="always"
       xlink:href="#linearGradient15003"
       id="linearGradient3382"
       gradientUnits="userSpaceOnUse"
       gradientTransform="translate(-0.14617282,0.39441808)"
       x1="8.3999998"
       y1="100.8"
       x2="201.6"
       y2="100.8" />
  </defs>
  <g
     inkscape:label="Vrstva 1"
     inkscape:groupmode="layer"
     id="layer1">
    <path
       id="path21657"
       style="color:#000000;fill:url(#linearGradient3382);stroke-width:14.958;stroke-linejoin:round;-inkscape-stroke:none"
       d="m 104.85355,35.6309 c -35.39264,0 -70.786076,5.480089 -99.2854144,16.441374 a 7.479748,7.479748 0 0 0 -4.79298912,6.980452 v 92.400564 a 7.479748,7.479748 0 0 0 4.79298912,6.98045 c 56.9986764,21.92258 141.5716244,21.92258 198.5703044,0 a 7.479748,7.479748 0 0 0 4.79506,-6.98045 V 59.052726 a 7.479748,7.479748 0 0 0 -4.79506,-6.980452 C 175.6391,41.110989 140.24618,35.6309 104.85355,35.6309 Z" />
    <path
       id="path6470"
       style="fill:#0c6445;fill-opacity:1;stroke-width:3.90001;stroke-linejoin:round"
       d="M 136.23044 101.24498 C 132.06716 101.24233 127.74672 103.42547 123.28963 108.56082 L 70.984814 173.17238 C 113.44819 177.48252 159.2254 173.58262 195.67384 161.46095 L 149.74797 108.56082 C 145.46528 104.0585 140.94883 101.24798 136.23044 101.24498 z " />
    <path
       id="path6465"
       style="fill:#87bd00;fill-opacity:1;stroke-width:3.90001;stroke-linejoin:round"
       d="M 61.634481 83.544771 C 54.384244 83.4905 47.007708 87.691967 39.914876 96.239087 L 0.77514648 140.88907 L 0.77514648 151.45329 A 7.479748 7.479748 0 0 0 5.5681356 158.43374 C 45.415412 173.75962 98.737878 178.36849 146.69544 172.26597 L 82.597542 96.385331 C 76.008934 87.909139 68.884718 83.599043 61.634481 83.544771 z " />
  </g>
</svg>
